# 3ds Max Wavefront OBJ Exporter v0.97b - (c)2007 guruware
# File Created: 05.11.2009 02:18:31

mtllib Box Smooth-Frame_1.mtl

#
# object Box_Smooth
#

v  -12.5000 -25.0000 12.5000
v  -12.5000 -21.8750 21.8750
v  -19.4444 -19.4444 19.4444
v  -21.8750 -21.8750 12.5000
v  -12.5000 -25.0000 -0.0000
v  -21.8750 -21.8750 -0.0000
v  0.0000 -25.0000 -0.0000
v  0.0000 -25.0000 12.5000
v  0.0000 -21.8750 21.8750
v  -12.5000 25.0000 12.5000
v  -21.8750 21.8750 12.5000
v  -19.4444 19.4445 19.4444
v  -12.5000 21.8750 21.8750
v  0.0000 25.0000 12.5000
v  0.0000 21.8750 21.8750
v  0.0000 25.0000 -0.0000
v  -12.5000 25.0000 -0.0000
v  -21.8750 21.8750 -0.0000
v  -12.5000 -12.5000 25.0000
v  -21.8750 -12.5000 21.8750
v  0.0000 -12.5000 25.0000
v  0.0000 0.0000 25.0000
v  -12.5000 0.0000 25.0000
v  -21.8750 0.0000 21.8750
v  25.0000 -12.5000 12.5000
v  21.8750 -12.5000 21.8750
v  19.4444 -19.4444 19.4444
v  21.8750 -21.8750 12.5000
v  25.0000 -12.5000 -0.0000
v  21.8750 -21.8750 -0.0000
v  25.0000 0.0000 -0.0000
v  25.0000 0.0000 12.5000
v  21.8750 0.0000 21.8750
v  12.5000 -12.5000 -25.0000
v  21.8750 -12.5000 -21.8750
v  19.4444 -19.4444 -19.4444
v  12.5000 -21.8750 -21.8750
v  0.0000 -12.5000 -25.0000
v  0.0000 -21.8750 -21.8750
v  0.0000 0.0000 -25.0000
v  12.5000 0.0000 -25.0000
v  21.8750 0.0000 -21.8750
v  -25.0000 -12.5000 -12.5000
v  -21.8750 -12.5000 -21.8750
v  -19.4444 -19.4444 -19.4444
v  -21.8750 -21.8750 -12.5000
v  -25.0000 -12.5000 -0.0000
v  -25.0000 0.0000 -0.0000
v  -25.0000 0.0000 -12.5000
v  -21.8750 0.0000 -21.8750
v  12.5000 -25.0000 -12.5000
v  0.0000 -25.0000 -12.5000
v  21.8750 -21.8750 -12.5000
v  12.5000 -25.0000 -0.0000
v  12.5000 25.0000 12.5000
v  12.5000 21.8750 21.8750
v  21.8750 21.8750 12.5000
v  19.4444 19.4445 19.4444
v  21.8750 21.8750 -0.0000
v  12.5000 25.0000 -0.0000
v  12.5000 -12.5000 25.0000
v  12.5000 -21.8750 21.8750
v  12.5000 0.0000 25.0000
v  -12.5000 -12.5000 -25.0000
v  -12.5000 -21.8750 -21.8750
v  -12.5000 0.0000 -25.0000
v  -12.5000 -25.0000 -12.5000
v  -12.5000 25.0000 -12.5000
v  0.0000 25.0000 -12.5000
v  -12.5000 21.8750 -21.8750
v  0.0000 21.8750 -21.8750
v  -19.4444 19.4445 -19.4444
v  -21.8750 21.8750 -12.5000
v  25.0000 -12.5000 -12.5000
v  25.0000 0.0000 -12.5000
v  -25.0000 -12.5000 12.5000
v  -25.0000 0.0000 12.5000
v  12.5000 -25.0000 12.5000
v  12.5000 25.0000 -12.5000
v  21.8750 21.8750 -12.5000
v  12.5000 21.8750 -21.8750
v  19.4444 19.4445 -19.4444
v  -12.5000 12.5000 25.0000
v  0.0000 12.5000 25.0000
v  -21.8750 12.5000 21.8750
v  25.0000 12.5000 12.5000
v  25.0000 12.5000 -0.0000
v  21.8750 12.5000 21.8750
v  12.5000 12.5000 -25.0000
v  0.0000 12.5000 -25.0000
v  21.8750 12.5000 -21.8750
v  -25.0000 12.5000 -12.5000
v  -25.0000 12.5000 -0.0000
v  -21.8750 12.5000 -21.8750
v  12.5000 12.5000 25.0000
v  -12.5000 12.5000 -25.0000
v  25.0000 12.5000 -12.5000
v  -25.0000 12.5000 12.5000
# 98 vertices

vn -0.1681 -0.9713 0.1681
vn -0.2146 -0.6906 0.6906
vn -0.5392 -0.5955 0.5955
vn -0.6843 -0.7014 0.1993
vn -0.1602 -0.9871 -0.0000
vn -0.7071 -0.7071 -0.0000
vn 0.0000 -1.0000 -0.0000
vn 0.0000 -0.9871 0.1602
vn 0.0000 -0.7071 0.7071
vn -0.1681 0.9713 0.1681
vn -0.6843 0.7014 0.1993
vn -0.5392 0.5955 0.5955
vn -0.2146 0.6906 0.6906
vn 0.0000 0.9871 0.1602
vn 0.0000 0.7071 0.7071
vn 0.0000 1.0000 -0.0000
vn -0.1602 0.9871 -0.0000
vn -0.7071 0.7071 -0.0000
vn -0.1681 -0.1681 0.9713
vn -0.6843 -0.1993 0.7014
vn 0.0000 -0.1602 0.9871
vn 0.0000 0.0000 1.0000
vn -0.1602 0.0000 0.9871
vn -0.7071 0.0000 0.7071
vn 0.9713 -0.1681 0.1681
vn 0.7014 -0.1993 0.6843
vn 0.6137 -0.5583 0.5583
vn 0.7014 -0.6843 0.1993
vn 0.9871 -0.1602 -0.0000
vn 0.7071 -0.7071 -0.0000
vn 1.0000 0.0000 -0.0000
vn 0.9871 0.0000 0.1602
vn 0.7071 0.0000 0.7071
vn 0.1681 -0.1681 -0.9713
vn 0.6843 -0.1993 -0.7014
vn 0.5583 -0.5583 -0.6137
vn 0.1993 -0.6843 -0.7014
vn 0.0000 -0.1602 -0.9871
vn 0.0000 -0.7071 -0.7071
vn 0.0000 0.0000 -1.0000
vn 0.1602 0.0000 -0.9871
vn 0.7071 0.0000 -0.7071
vn -0.9713 -0.1681 -0.1681
vn -0.7014 -0.1993 -0.6843
vn -0.6137 -0.5583 -0.5583
vn -0.7014 -0.6843 -0.1993
vn -0.9871 -0.1602 -0.0000
vn -1.0000 0.0000 -0.0000
vn -0.9871 0.0000 -0.1602
vn -0.7071 0.0000 -0.7071
vn 0.1559 -0.9754 -0.1559
vn 0.0000 -0.9871 -0.1602
vn 0.6950 -0.6950 -0.1842
vn 0.1602 -0.9871 -0.0000
vn 0.1559 0.9754 0.1559
vn 0.1842 0.6950 0.6950
vn 0.7014 0.6843 0.1993
vn 0.6137 0.5583 0.5583
vn 0.7071 0.7071 -0.0000
vn 0.1602 0.9871 -0.0000
vn 0.1559 -0.1559 0.9754
vn 0.1842 -0.6950 0.6950
vn 0.1602 0.0000 0.9871
vn -0.1559 -0.1559 -0.9754
vn -0.1842 -0.6950 -0.6950
vn -0.1602 0.0000 -0.9871
vn -0.1559 -0.9754 -0.1559
vn -0.1681 0.9713 -0.1681
vn 0.0000 0.9871 -0.1602
vn -0.1993 0.7014 -0.6843
vn 0.0000 0.7071 -0.7071
vn -0.5955 0.5955 -0.5392
vn -0.6906 0.6906 -0.2146
vn 0.9754 -0.1559 -0.1559
vn 0.9871 0.0000 -0.1602
vn -0.9754 -0.1559 0.1559
vn -0.9871 0.0000 0.1602
vn 0.1559 -0.9754 0.1559
vn 0.1559 0.9754 -0.1559
vn 0.6950 0.6950 -0.1842
vn 0.1993 0.6843 -0.7014
vn 0.5583 0.5583 -0.6137
vn -0.1681 0.1681 0.9713
vn 0.0000 0.1602 0.9871
vn -0.6843 0.1993 0.7014
vn 0.9713 0.1681 0.1681
vn 0.9871 0.1602 -0.0000
vn 0.7014 0.1993 0.6843
vn 0.1681 0.1681 -0.9713
vn 0.0000 0.1602 -0.9871
vn 0.6843 0.1993 -0.7014
vn -0.9713 0.1681 -0.1681
vn -0.9871 0.1602 -0.0000
vn -0.7014 0.1993 -0.6843
vn 0.1559 0.1559 0.9754
vn -0.1559 0.1559 -0.9754
vn 0.9754 0.1559 -0.1559
vn -0.9754 0.1559 0.1559
# 98 vertex normals

vt 0.7500 0.2500 0.0000
vt 0.7500 0.0000 0.0000
vt 1.0000 0.0000 0.0000
vt 1.0000 0.2500 0.0000
vt 0.7500 0.5000 0.0000
vt 1.0000 0.5000 0.0000
vt 0.5000 0.5000 0.0000
vt 0.5000 0.2500 0.0000
vt 0.5000 0.0000 0.0000
vt 0.2500 0.2500 0.0000
vt 0.0000 0.2500 0.0000
vt 0.0000 0.0000 0.0000
vt 0.2500 0.0000 0.0000
vt 0.2500 0.5000 0.0000
vt 0.0000 0.5000 0.0000
vt 0.2500 0.7500 0.0000
vt 0.5000 0.7500 0.0000
vt 0.5000 1.0000 0.0000
vt 0.2500 1.0000 0.0000
vt 0.0000 0.7500 0.0000
vt 0.0000 1.0000 0.0000
vt 0.7500 0.7500 0.0000
vt 1.0000 0.7500 0.0000
vt 0.7500 1.0000 0.0000
vt 1.0000 1.0000 0.0000
# 25 texture coords

g Box_Smooth
usemtl 004_default_green
s 1
f 1/1/1 2/2/2 3/3/3 4/4/4 
f 5/5/5 1/1/1 4/4/4 6/6/6 
f 1/1/1 5/5/5 7/7/7 8/8/8 
f 2/2/2 1/1/1 8/8/8 9/9/9 
f 10/10/10 11/11/11 12/12/12 13/13/13 
f 14/8/14 10/10/10 13/13/13 15/9/15 
f 10/10/10 14/8/14 16/7/16 17/14/17 
f 11/11/11 10/10/10 17/14/17 18/15/18 
f 19/10/19 20/11/20 3/12/3 2/13/2 
f 21/8/21 19/10/19 2/13/2 9/9/9 
f 19/10/19 21/8/21 22/7/22 23/14/23 
f 20/11/20 19/10/19 23/14/23 24/15/24 
f 25/10/25 26/11/26 27/12/27 28/13/28 
f 29/8/29 25/10/25 28/13/28 30/9/30 
f 25/10/25 29/8/29 31/7/31 32/14/32 
f 26/11/26 25/10/25 32/14/32 33/15/33 
f 34/10/34 35/11/35 36/12/36 37/13/37 
f 38/8/38 34/10/34 37/13/37 39/9/39 
f 34/10/34 38/8/38 40/7/40 41/14/41 
f 35/11/35 34/10/34 41/14/41 42/15/42 
f 43/10/43 44/11/44 45/12/45 46/13/46 
f 47/8/47 43/10/43 46/13/46 6/9/6 
f 43/10/43 47/8/47 48/7/48 49/14/49 
f 44/11/44 43/10/43 49/14/49 50/15/50 
f 51/16/51 52/17/52 39/18/39 37/19/37 
f 53/20/53 51/16/51 37/19/37 36/21/36 
f 51/16/51 53/20/53 30/15/30 54/14/54 
f 52/17/52 51/16/51 54/14/54 7/7/7 
f 55/1/55 14/8/14 15/9/15 56/2/56 
f 57/4/57 55/1/55 56/2/56 58/3/58 
f 55/1/55 57/4/57 59/6/59 60/5/60 
f 14/8/14 55/1/55 60/5/60 16/7/16 
f 61/1/61 21/8/21 9/9/9 62/2/62 
f 26/4/26 61/1/61 62/2/62 27/3/27 
f 61/1/61 26/4/26 33/6/33 63/5/63 
f 21/8/21 61/1/61 63/5/63 22/7/22 
f 64/1/64 38/8/38 39/9/39 65/2/65 
f 44/4/44 64/1/64 65/2/65 45/3/45 
f 64/1/64 44/4/44 50/6/50 66/5/66 
f 38/8/38 64/1/64 66/5/66 40/7/40 
f 67/22/67 5/5/5 6/6/6 46/23/46 
f 65/24/65 67/22/67 46/23/46 45/25/45 
f 67/22/67 65/24/65 39/18/39 52/17/52 
f 5/5/5 67/22/67 52/17/52 7/7/7 
f 68/16/68 17/14/17 16/7/16 69/17/69 
f 70/19/70 68/16/68 69/17/69 71/18/71 
f 68/16/68 70/19/70 72/21/72 73/20/73 
f 17/14/17 68/16/68 73/20/73 18/15/18 
f 74/1/74 29/8/29 30/9/30 53/2/53 
f 35/4/35 74/1/74 53/2/53 36/3/36 
f 74/1/74 35/4/35 42/6/42 75/5/75 
f 29/8/29 74/1/74 75/5/75 31/7/31 
f 76/1/76 47/8/47 6/9/6 4/2/4 
f 20/4/20 76/1/76 4/2/4 3/3/3 
f 76/1/76 20/4/20 24/6/24 77/5/77 
f 47/8/47 76/1/76 77/5/77 48/7/48 
f 78/10/78 54/14/54 30/15/30 28/11/28 
f 62/13/62 78/10/78 28/11/28 27/12/27 
f 78/10/78 62/13/62 9/9/9 8/8/8 
f 54/14/54 78/10/78 8/8/8 7/7/7 
f 79/22/79 60/5/60 59/6/59 80/23/80 
f 81/24/81 79/22/79 80/23/80 82/25/82 
f 79/22/79 81/24/81 71/18/71 69/17/69 
f 60/5/60 79/22/79 69/17/69 16/7/16 
f 83/16/83 23/14/23 22/7/22 84/17/84 
f 13/19/13 83/16/83 84/17/84 15/18/15 
f 83/16/83 13/19/13 12/21/12 85/20/85 
f 23/14/23 83/16/83 85/20/85 24/15/24 
f 86/16/86 32/14/32 31/7/31 87/17/87 
f 57/19/57 86/16/86 87/17/87 59/18/59 
f 86/16/86 57/19/57 58/21/58 88/20/88 
f 32/14/32 86/16/86 88/20/88 33/15/33 
f 89/16/89 41/14/41 40/7/40 90/17/90 
f 81/19/81 89/16/89 90/17/90 71/18/71 
f 89/16/89 81/19/81 82/21/82 91/20/91 
f 41/14/41 89/16/89 91/20/91 42/15/42 
f 92/16/92 49/14/49 48/7/48 93/17/93 
f 73/19/73 92/16/92 93/17/93 18/18/18 
f 92/16/92 73/19/73 72/21/72 94/20/94 
f 49/14/49 92/16/92 94/20/94 50/15/50 
f 95/22/95 63/5/63 33/6/33 88/23/88 
f 56/24/56 95/22/95 88/23/88 58/25/58 
f 95/22/95 56/24/56 15/18/15 84/17/84 
f 63/5/63 95/22/95 84/17/84 22/7/22 
f 96/22/96 66/5/66 50/6/50 94/23/94 
f 70/24/70 96/22/96 94/23/94 72/25/72 
f 96/22/96 70/24/70 71/18/71 90/17/90 
f 66/5/66 96/22/96 90/17/90 40/7/40 
f 97/22/97 75/5/75 42/6/42 91/23/91 
f 80/24/80 97/22/97 91/23/91 82/25/82 
f 97/22/97 80/24/80 59/18/59 87/17/87 
f 75/5/75 97/22/97 87/17/87 31/7/31 
f 98/22/98 77/5/77 24/6/24 85/23/85 
f 11/24/11 98/22/98 85/23/85 12/25/12 
f 98/22/98 11/24/11 18/18/18 93/17/93 
f 77/5/77 98/22/98 93/17/93 48/7/48 
# 96 polygons

