# 3ds Max Wavefront OBJ Exporter v0.97b - (c)2007 guruware
# File Created: 05.11.2009 02:18:30

mtllib Cylinder Cut-Frame_1.mtl

#
# object Cylinder_Cut
#

v  16.9177 2.6616 -7.0075
v  18.3690 2.6616 0.0000
v  19.4326 2.3289 0.0000
v  17.8973 2.3289 -7.4133
v  12.9888 2.6616 -12.9888
v  13.7409 2.3289 -13.7409
v  10.9548 2.6616 -10.9548
v  14.2685 2.6616 -5.9102
v  15.4925 2.6616 0.0000
v  7.0075 2.6616 -16.9177
v  7.4133 2.3289 -17.8973
v  -0.0000 2.6616 -18.3690
v  -0.0000 2.3289 -19.4326
v  -0.0000 2.6616 -15.4925
v  5.9102 2.6616 -14.2685
v  -7.0075 2.6616 -16.9177
v  -7.4133 2.3289 -17.8973
v  -12.9888 2.6616 -12.9888
v  -13.7409 2.3289 -13.7409
v  -10.9548 2.6616 -10.9548
v  -5.9102 2.6616 -14.2685
v  -16.9177 2.6616 -7.0075
v  -17.8973 2.3289 -7.4133
v  -18.3690 2.6616 0.0000
v  -19.4326 2.3289 0.0000
v  -15.4925 2.6616 0.0000
v  -14.2684 2.6616 -5.9102
v  -16.9177 2.6616 7.0075
v  -17.8973 2.3289 7.4133
v  -12.9888 2.6616 12.9889
v  -13.7409 2.3289 13.7409
v  -10.9548 2.6616 10.9548
v  -14.2684 2.6616 5.9102
v  -7.0075 2.6616 16.9177
v  -7.4133 2.3289 17.8973
v  0.0000 2.6616 18.3690
v  0.0000 2.3289 19.4326
v  0.0000 2.6616 15.4925
v  -5.9102 2.6616 14.2685
v  7.0075 2.6616 16.9177
v  7.4133 2.3289 17.8973
v  12.9888 2.6616 12.9889
v  13.7409 2.3289 13.7409
v  10.9548 2.6616 10.9548
v  5.9102 2.6616 14.2685
v  16.9177 2.6616 7.0075
v  17.8973 2.3289 7.4133
v  14.2684 2.6616 5.9102
v  18.2238 1.3308 -7.5485
v  18.2238 -1.3308 -7.5485
v  13.9916 -1.3308 -13.9916
v  13.9916 1.3308 -13.9916
v  19.7871 1.3308 0.0000
v  19.7871 -1.3308 0.0000
v  7.5485 1.3308 -18.2238
v  7.5485 -1.3308 -18.2238
v  -0.0000 -1.3308 -19.7871
v  -0.0000 1.3308 -19.7871
v  -7.5485 1.3308 -18.2238
v  -7.5485 -1.3308 -18.2238
v  -13.9916 -1.3308 -13.9916
v  -13.9916 1.3308 -13.9916
v  -18.2238 1.3308 -7.5485
v  -18.2238 -1.3308 -7.5485
v  -19.7871 -1.3308 0.0000
v  -19.7871 1.3308 0.0000
v  -18.2238 1.3308 7.5485
v  -18.2238 -1.3308 7.5485
v  -13.9916 -1.3308 13.9916
v  -13.9916 1.3308 13.9916
v  -7.5485 1.3308 18.2238
v  -7.5485 -1.3308 18.2238
v  0.0000 -1.3308 19.7871
v  0.0000 1.3308 19.7871
v  7.5485 1.3308 18.2238
v  7.5485 -1.3308 18.2238
v  13.9916 -1.3308 13.9916
v  13.9916 1.3308 13.9916
v  18.2238 1.3308 7.5485
v  18.2238 -1.3308 7.5485
v  16.8807 -2.6616 -6.9922
v  17.8880 -2.3289 -7.4095
v  19.4226 -2.3289 0.0000
v  18.3289 -2.6616 0.0000
v  15.4524 -2.6616 0.0000
v  14.2315 -2.6616 -5.8949
v  10.9265 -2.6616 -10.9265
v  12.9605 -2.6616 -12.9605
v  13.7338 -2.3289 -13.7338
v  6.9922 -2.6616 -16.8807
v  7.4095 -2.3289 -17.8880
v  5.8949 -2.6616 -14.2315
v  -0.0000 -2.6616 -15.4524
v  -0.0000 -2.6616 -18.3289
v  -0.0000 -2.3289 -19.4226
v  -6.9922 -2.6616 -16.8807
v  -7.4095 -2.3289 -17.8880
v  -5.8949 -2.6616 -14.2315
v  -10.9265 -2.6616 -10.9265
v  -12.9605 -2.6616 -12.9605
v  -13.7338 -2.3289 -13.7338
v  -16.8807 -2.6616 -6.9922
v  -17.8880 -2.3289 -7.4095
v  -14.2315 -2.6616 -5.8949
v  -15.4524 -2.6616 0.0000
v  -18.3289 -2.6616 0.0000
v  -19.4226 -2.3289 0.0000
v  -16.8807 -2.6616 6.9922
v  -17.8880 -2.3289 7.4095
v  -14.2315 -2.6616 5.8949
v  -10.9265 -2.6616 10.9265
v  -12.9605 -2.6616 12.9605
v  -13.7338 -2.3289 13.7338
v  -6.9922 -2.6616 16.8807
v  -7.4095 -2.3289 17.8880
v  -5.8949 -2.6616 14.2315
v  0.0000 -2.6616 15.4524
v  0.0000 -2.6616 18.3289
v  0.0000 -2.3289 19.4226
v  6.9922 -2.6616 16.8807
v  7.4095 -2.3289 17.8880
v  5.8949 -2.6616 14.2315
v  10.9265 -2.6616 10.9265
v  12.9605 -2.6616 12.9605
v  13.7338 -2.3289 13.7338
v  16.8807 -2.6616 6.9922
v  17.8880 -2.3289 7.4095
v  14.2315 -2.6616 5.8949
v  -5.3538 1.3308 -12.9253
v  -0.0000 1.3308 -14.0341
v  -0.0000 2.3289 -14.3987
v  -5.4929 2.3289 -13.2611
v  -9.9236 1.3308 -9.9236
v  -10.1814 2.3289 -10.1814
v  -9.9236 -1.3308 -9.9236
v  -5.3538 -1.3308 -12.9253
v  -0.0000 -1.3308 -14.0341
v  -12.9253 1.3308 -5.3538
v  -13.2611 2.3289 -5.4929
v  -14.0341 1.3308 0.0000
v  -14.3987 2.3289 0.0000
v  -14.0341 -1.3308 0.0000
v  -12.9253 -1.3308 -5.3538
v  -12.9253 1.3308 5.3538
v  -13.2611 2.3289 5.4929
v  -9.9236 1.3308 9.9236
v  -10.1814 2.3289 10.1814
v  -9.9236 -1.3308 9.9236
v  -12.9253 -1.3308 5.3538
v  -5.3538 1.3308 12.9253
v  -5.4929 2.3289 13.2611
v  0.0000 1.3308 14.0341
v  0.0000 2.3289 14.3987
v  0.0000 -1.3308 14.0341
v  -5.3538 -1.3308 12.9253
v  5.3538 1.3308 12.9253
v  5.4929 2.3289 13.2611
v  9.9236 1.3308 9.9236
v  10.1814 2.3289 10.1814
v  9.9236 -1.3308 9.9236
v  5.3538 -1.3308 12.9253
v  12.9253 1.3308 5.3538
v  13.2611 2.3289 5.4929
v  14.0341 1.3308 0.0000
v  14.3987 2.3289 0.0000
v  14.0341 -1.3308 0.0000
v  12.9253 -1.3308 5.3538
v  12.9253 1.3308 -5.3538
v  13.2611 2.3289 -5.4929
v  9.9236 1.3308 -9.9236
v  10.1814 2.3289 -10.1814
v  9.9236 -1.3308 -9.9236
v  12.9253 -1.3308 -5.3538
v  5.3538 1.3308 -12.9253
v  5.4929 2.3289 -13.2611
v  5.3538 -1.3308 -12.9253
v  13.2518 -2.3289 -5.4891
v  14.3887 -2.3289 0.0000
v  10.1743 -2.3289 -10.1743
v  5.4891 -2.3289 -13.2518
v  -0.0000 -2.3289 -14.3887
v  -5.4891 -2.3289 -13.2518
v  -10.1743 -2.3289 -10.1743
v  -13.2518 -2.3289 -5.4891
v  -14.3887 -2.3289 0.0000
v  -13.2518 -2.3289 5.4891
v  -10.1743 -2.3289 10.1743
v  -5.4891 -2.3289 13.2518
v  0.0000 -2.3289 14.3887
v  5.4891 -2.3289 13.2518
v  10.1743 -2.3289 10.1743
v  13.2518 -2.3289 5.4891
# 192 vertices

vn 0.1562 0.9856 -0.0647
vn 0.1701 0.9854 0.0000
vn 0.7213 0.6926 0.0000
vn 0.6651 0.6940 -0.2755
vn 0.1203 0.9854 -0.1203
vn 0.5100 0.6926 -0.5100
vn -0.0907 0.9917 0.0907
vn -0.1202 0.9915 0.0498
vn -0.1283 0.9917 -0.0000
vn 0.0647 0.9856 -0.1562
vn 0.2755 0.6940 -0.6651
vn -0.0000 0.9854 -0.1701
vn -0.0000 0.6926 -0.7213
vn 0.0000 0.9917 0.1283
vn -0.0498 0.9915 0.1202
vn -0.0647 0.9856 -0.1562
vn -0.2755 0.6940 -0.6651
vn -0.1203 0.9854 -0.1203
vn -0.5100 0.6926 -0.5100
vn 0.0907 0.9917 0.0907
vn 0.0498 0.9915 0.1202
vn -0.1562 0.9856 -0.0647
vn -0.6651 0.6940 -0.2755
vn -0.1701 0.9854 0.0000
vn -0.7213 0.6926 0.0000
vn 0.1283 0.9917 -0.0000
vn 0.1202 0.9915 0.0498
vn -0.1562 0.9856 0.0647
vn -0.6651 0.6940 0.2755
vn -0.1203 0.9854 0.1203
vn -0.5100 0.6926 0.5100
vn 0.0907 0.9917 -0.0907
vn 0.1202 0.9915 -0.0498
vn -0.0647 0.9856 0.1562
vn -0.2755 0.6940 0.6651
vn 0.0000 0.9854 0.1701
vn 0.0000 0.6926 0.7213
vn -0.0000 0.9917 -0.1283
vn 0.0498 0.9915 -0.1202
vn 0.0647 0.9856 0.1562
vn 0.2755 0.6940 0.6651
vn 0.1203 0.9854 0.1203
vn 0.5100 0.6926 0.5100
vn -0.0907 0.9917 -0.0907
vn -0.0498 0.9915 -0.1202
vn 0.1562 0.9856 0.0647
vn 0.6651 0.6940 0.2755
vn -0.1202 0.9915 -0.0498
vn 0.9111 0.1661 -0.3774
vn 0.9104 -0.1703 -0.3771
vn 0.6968 -0.1705 -0.6968
vn 0.6973 0.1663 -0.6973
vn 0.9861 0.1663 0.0000
vn 0.9854 -0.1705 0.0000
vn 0.3774 0.1661 -0.9111
vn 0.3771 -0.1703 -0.9104
vn 0.0000 -0.1705 -0.9854
vn 0.0000 0.1663 -0.9861
vn -0.3774 0.1661 -0.9111
vn -0.3771 -0.1703 -0.9104
vn -0.6968 -0.1705 -0.6968
vn -0.6973 0.1663 -0.6973
vn -0.9111 0.1661 -0.3774
vn -0.9104 -0.1703 -0.3771
vn -0.9854 -0.1705 -0.0000
vn -0.9861 0.1663 -0.0000
vn -0.9111 0.1661 0.3774
vn -0.9104 -0.1703 0.3771
vn -0.6968 -0.1705 0.6968
vn -0.6973 0.1663 0.6973
vn -0.3774 0.1661 0.9111
vn -0.3771 -0.1703 0.9104
vn 0.0000 -0.1705 0.9854
vn 0.0000 0.1663 0.9861
vn 0.3774 0.1661 0.9111
vn 0.3771 -0.1703 0.9104
vn 0.6968 -0.1705 0.6968
vn 0.6973 0.1663 0.6973
vn 0.9111 0.1661 0.3774
vn 0.9104 -0.1703 0.3771
vn 0.1522 -0.9863 -0.0631
vn 0.6599 -0.6998 -0.2734
vn 0.7157 -0.6984 0.0000
vn 0.1657 -0.9862 0.0000
vn -0.1317 -0.9913 -0.0000
vn -0.1234 -0.9910 0.0511
vn -0.0931 -0.9913 0.0931
vn 0.1172 -0.9862 -0.1172
vn 0.5061 -0.6984 -0.5061
vn 0.0631 -0.9863 -0.1522
vn 0.2734 -0.6998 -0.6599
vn -0.0511 -0.9910 0.1234
vn 0.0000 -0.9913 0.1317
vn 0.0000 -0.9862 -0.1657
vn -0.0000 -0.6984 -0.7157
vn -0.0631 -0.9863 -0.1522
vn -0.2734 -0.6998 -0.6599
vn 0.0511 -0.9910 0.1234
vn 0.0931 -0.9913 0.0931
vn -0.1172 -0.9862 -0.1172
vn -0.5061 -0.6984 -0.5061
vn -0.1522 -0.9863 -0.0631
vn -0.6599 -0.6998 -0.2734
vn 0.1234 -0.9910 0.0511
vn 0.1317 -0.9913 0.0000
vn -0.1657 -0.9862 -0.0000
vn -0.7157 -0.6984 0.0000
vn -0.1522 -0.9863 0.0631
vn -0.6599 -0.6998 0.2734
vn 0.1234 -0.9910 -0.0511
vn 0.0931 -0.9913 -0.0931
vn -0.1172 -0.9862 0.1172
vn -0.5061 -0.6984 0.5061
vn -0.0631 -0.9863 0.1522
vn -0.2734 -0.6998 0.6599
vn 0.0511 -0.9910 -0.1234
vn 0.0000 -0.9913 -0.1317
vn -0.0000 -0.9862 0.1657
vn 0.0000 -0.6984 0.7157
vn 0.0631 -0.9863 0.1522
vn 0.2734 -0.6998 0.6599
vn -0.0511 -0.9910 -0.1234
vn -0.0931 -0.9913 -0.0931
vn 0.1172 -0.9862 0.1172
vn 0.5061 -0.6984 0.5061
vn 0.1522 -0.9863 0.0631
vn 0.6599 -0.6998 0.2734
vn -0.1234 -0.9910 -0.0511
vn 0.3766 0.1774 0.9092
vn 0.0000 0.1782 0.9840
vn 0.0000 0.7562 0.6544
vn 0.2517 0.7532 0.6078
vn 0.6958 0.1782 0.6958
vn 0.4627 0.7562 0.4627
vn 0.6964 -0.1736 0.6964
vn 0.3769 -0.1728 0.9100
vn 0.0000 -0.1736 0.9848
vn 0.9092 0.1774 0.3766
vn 0.6078 0.7532 0.2517
vn 0.9840 0.1782 -0.0000
vn 0.6544 0.7562 -0.0000
vn 0.9848 -0.1736 -0.0000
vn 0.9100 -0.1728 0.3769
vn 0.9092 0.1774 -0.3766
vn 0.6078 0.7532 -0.2517
vn 0.6958 0.1782 -0.6958
vn 0.4627 0.7562 -0.4627
vn 0.6964 -0.1736 -0.6964
vn 0.9100 -0.1728 -0.3769
vn 0.3766 0.1774 -0.9092
vn 0.2517 0.7532 -0.6078
vn 0.0000 0.1782 -0.9840
vn -0.0000 0.7562 -0.6544
vn 0.0000 -0.1736 -0.9848
vn 0.3769 -0.1728 -0.9100
vn -0.3766 0.1774 -0.9092
vn -0.2517 0.7532 -0.6078
vn -0.6958 0.1782 -0.6958
vn -0.4627 0.7562 -0.4627
vn -0.6964 -0.1736 -0.6964
vn -0.3769 -0.1728 -0.9100
vn -0.9092 0.1774 -0.3766
vn -0.6078 0.7532 -0.2517
vn -0.9840 0.1782 -0.0000
vn -0.6544 0.7562 -0.0000
vn -0.9848 -0.1736 -0.0000
vn -0.9100 -0.1728 -0.3769
vn -0.9092 0.1774 0.3766
vn -0.6078 0.7532 0.2517
vn -0.6958 0.1782 0.6958
vn -0.4627 0.7562 0.4627
vn -0.6964 -0.1736 0.6964
vn -0.9100 -0.1728 0.3769
vn -0.3766 0.1774 0.9092
vn -0.2517 0.7532 0.6078
vn -0.3769 -0.1728 0.9100
vn -0.6138 -0.7474 0.2542
vn -0.6609 -0.7505 -0.0000
vn -0.4673 -0.7505 0.4673
vn -0.2542 -0.7474 0.6138
vn 0.0000 -0.7505 0.6609
vn 0.2542 -0.7474 0.6138
vn 0.4673 -0.7505 0.4673
vn 0.6138 -0.7474 0.2542
vn 0.6609 -0.7505 -0.0000
vn 0.6138 -0.7474 -0.2542
vn 0.4673 -0.7505 -0.4673
vn 0.2542 -0.7474 -0.6138
vn 0.0000 -0.7505 -0.6609
vn -0.2542 -0.7474 -0.6138
vn -0.4673 -0.7505 -0.4673
vn -0.6138 -0.7474 -0.2542
# 192 vertex normals

vt 0.7049 0.9839 0.8351
vt 0.6950 0.9920 0.8351
vt 0.7363 0.9814 0.9588
vt 0.7856 0.9793 0.9588
vt 0.7205 0.9621 0.8351
vt 0.8364 0.9739 0.9588
vt 0.3692 0.8759 0.4601
vt 0.4603 0.9473 0.4601
vt 0.5700 0.9736 0.4601
vt 0.7475 0.9289 0.8351
vt 0.8900 0.9656 0.9588
vt 0.7801 0.8901 0.8351
vt 1.0000 1.0000 1.0000
vt 0.2801 0.6401 0.4601
vt 0.3153 0.7673 0.4601
vt 0.0649 0.8512 0.8351
vt 0.0000 0.8901 0.8351
vt 0.0000 1.0000 1.0000
vt 0.0631 0.9462 0.9588
vt 0.1354 0.8180 0.8351
vt 0.1276 0.9379 0.9588
vt 0.1591 0.4042 0.4601
vt 0.0702 0.5128 0.4601
vt 0.0000 0.6401 0.4601
vt 0.2173 0.7962 0.8351
vt 0.1950 0.9324 0.9588
vt 0.3050 0.7882 0.8351
vt 0.2637 0.9304 0.9588
vt 0.4300 0.3065 0.4601
vt 0.2852 0.3329 0.4601
vt 0.3926 0.7962 0.8351
vt 0.3325 0.9324 0.9588
vt 0.4745 0.8180 0.8351
vt 0.3999 0.9379 0.9588
vt 0.7009 0.4042 0.4601
vt 0.5747 0.3329 0.4601
vt 0.5451 0.8512 0.8351
vt 0.4644 0.9462 0.9588
vt 0.6019 0.8901 0.8351
vt 0.5255 0.9559 0.9588
vt 0.8336 0.6401 0.4601
vt 0.7897 0.5128 0.4601
vt 0.6426 0.9289 0.8351
vt 0.5825 0.9656 0.9588
vt 0.6696 0.9621 0.8351
vt 0.6361 0.9739 0.9588
vt 0.7709 0.8759 0.4601
vt 0.8247 0.7673 0.4601
vt 0.6851 0.9839 0.8351
vt 0.6869 0.9793 0.9588
vt 0.6798 0.9473 0.4601
vt 0.8125 0.9335 1.0000
vt 0.8750 0.9335 1.0000
vt 0.7500 0.9335 1.0000
vt 0.9375 0.9335 1.0000
vt 1.0000 0.9335 1.0000
vt 0.0625 0.9335 1.0000
vt 0.1250 0.9335 1.0000
vt 0.0000 0.9335 1.0000
vt 0.1875 0.9335 1.0000
vt 0.2500 0.9335 1.0000
vt 0.3125 0.9335 1.0000
vt 0.3750 0.9335 1.0000
vt 0.4375 0.9335 1.0000
vt 0.5000 0.9335 1.0000
vt 0.5625 0.9335 1.0000
vt 0.6250 0.9335 1.0000
vt 0.6875 0.9335 1.0000
vt 0.7012 0.9833 0.8293
vt 0.7847 0.9792 0.9573
vt 0.7358 0.9813 0.9573
vt 0.6931 0.9917 0.8293
vt 0.5681 0.9734 0.4543
vt 0.4565 0.9467 0.4543
vt 0.3638 0.8746 0.4543
vt 0.7151 0.9608 0.8293
vt 0.8350 0.9736 0.9573
vt 0.7408 0.9264 0.8293
vt 0.8883 0.9650 0.9573
vt 0.3087 0.7648 0.4543
vt 0.2724 0.6362 0.4543
vt 0.7724 0.8862 0.8293
vt 0.0649 0.8460 0.8293
vt 0.0631 0.9449 0.9573
vt 0.0000 0.8862 0.8293
vt 0.0000 0.6362 0.4543
vt 0.0703 0.5076 0.4543
vt 0.1594 0.3978 0.4543
vt 0.1358 0.8117 0.8293
vt 0.1277 0.9363 0.9573
vt 0.2184 0.7891 0.8293
vt 0.1952 0.9306 0.9573
vt 0.2862 0.3257 0.4543
vt 0.4319 0.2991 0.4543
vt 0.3069 0.7808 0.8293
vt 0.2642 0.9286 0.9573
vt 0.3954 0.7891 0.8293
vt 0.3332 0.9306 0.9573
vt 0.5775 0.3257 0.4543
vt 0.7043 0.3978 0.4543
vt 0.4780 0.8117 0.8293
vt 0.4008 0.9363 0.9573
vt 0.5488 0.8460 0.8293
vt 0.4653 0.9449 0.9573
vt 0.7935 0.5076 0.4543
vt 0.8371 0.6362 0.4543
vt 0.6055 0.8862 0.8293
vt 0.5264 0.9549 0.9573
vt 0.6454 0.9264 0.8293
vt 0.5832 0.9650 0.9573
vt 0.8275 0.7648 0.4543
vt 0.7725 0.8746 0.4543
vt 0.6711 0.9608 0.8293
vt 0.6365 0.9736 0.9573
vt 0.6851 0.9833 0.8293
vt 0.6869 0.9792 0.9573
vt 0.6797 0.9467 0.4543
vt 0.0732 0.3232 0.2500
vt 0.0366 0.5000 0.2500
vt 0.0691 0.5350 0.3025
vt 0.0725 0.3706 0.3025
vt 0.1723 0.1723 0.2500
vt 0.1690 0.2303 0.3025
vt 0.3232 0.0732 0.2500
vt 0.3137 0.1381 0.3025
vt 0.5000 0.0366 0.2500
vt 0.4825 0.1041 0.3025
vt 0.6768 0.0732 0.2500
vt 0.6513 0.1381 0.3025
vt 0.8277 0.1723 0.2500
vt 0.7960 0.2303 0.3025
vt 0.9268 0.3232 0.2500
vt 0.8925 0.3706 0.3025
vt 0.9634 0.5000 0.2500
vt 0.9309 0.5350 0.3025
vt 0.9268 0.6768 0.2500
vt 0.9013 0.6994 0.3025
vt 0.8277 0.8277 0.2500
vt 0.8135 0.8397 0.3025
vt 0.6768 0.9268 0.2500
vt 0.6775 0.9319 0.3025
vt 0.5000 0.9634 0.2500
vt 0.5175 0.9660 0.3025
vt 0.3232 0.9268 0.2500
vt 0.3575 0.9319 0.3025
vt 0.1723 0.8277 0.2500
vt 0.2215 0.8397 0.3025
vt 0.0732 0.6768 0.2500
vt 0.1338 0.6994 0.3025
vt 0.3565 0.9318 0.3011
vt 0.5170 0.9659 0.3011
vt 0.2202 0.8394 0.3011
vt 0.1321 0.6988 0.3011
vt 0.0682 0.5341 0.3011
vt 0.0725 0.3693 0.3011
vt 0.1691 0.2287 0.3011
vt 0.3140 0.1363 0.3011
vt 0.4830 0.1022 0.3011
vt 0.6520 0.1363 0.3011
vt 0.7968 0.2287 0.3011
vt 0.8935 0.3693 0.3011
vt 0.9318 0.5341 0.3011
vt 0.9020 0.6988 0.3011
vt 0.8139 0.8394 0.3011
vt 0.6775 0.9318 0.3011
# 165 texture coords

g Cylinder_Cut
usemtl 004_default_green
s 4
f 1/1/1 2/2/2 3/3/3 4/4/4 
f 5/5/5 1/1/1 4/4/4 6/6/6 
f 7/7/7 8/8/8 1/1/1 5/5/5 
f 8/8/8 9/9/9 2/2/2 1/1/1 
f 10/10/10 5/5/5 6/6/6 11/11/11 
f 12/12/12 10/10/10 11/11/11 13/13/13 
f 14/14/14 15/15/15 10/10/10 12/12/12 
f 15/15/15 7/7/7 5/5/5 10/10/10 
f 16/16/16 12/17/12 13/18/13 17/19/17 
f 18/20/18 16/16/16 17/19/17 19/21/19 
f 20/22/20 21/23/21 16/16/16 18/20/18 
f 21/23/21 14/24/14 12/17/12 16/16/16 
f 22/25/22 18/20/18 19/21/19 23/26/23 
f 24/27/24 22/25/22 23/26/23 25/28/25 
f 26/29/26 27/30/27 22/25/22 24/27/24 
f 27/30/27 20/22/20 18/20/18 22/25/22 
f 28/31/28 24/27/24 25/28/25 29/32/29 
f 30/33/30 28/31/28 29/32/29 31/34/31 
f 32/35/32 33/36/33 28/31/28 30/33/30 
f 33/36/33 26/29/26 24/27/24 28/31/28 
f 34/37/34 30/33/30 31/34/31 35/38/35 
f 36/39/36 34/37/34 35/38/35 37/40/37 
f 38/41/38 39/42/39 34/37/34 36/39/36 
f 39/42/39 32/35/32 30/33/30 34/37/34 
f 40/43/40 36/39/36 37/40/37 41/44/41 
f 42/45/42 40/43/40 41/44/41 43/46/43 
f 44/47/44 45/48/45 40/43/40 42/45/42 
f 45/48/45 38/41/38 36/39/36 40/43/40 
f 46/49/46 42/45/42 43/46/43 47/50/47 
f 2/2/2 46/49/46 47/50/47 3/3/3 
f 9/9/9 48/51/48 46/49/46 2/2/2 
f 48/51/48 44/47/44 42/45/42 46/49/46 
f 49/52/49 50/52/50 51/53/51 52/53/52 
f 4/4/4 49/52/49 52/53/52 6/6/6 
f 49/52/49 4/4/4 3/3/3 53/54/53 
f 53/54/53 54/54/54 50/52/50 49/52/49 
f 55/55/55 56/55/56 57/56/57 58/56/58 
f 11/11/11 55/55/55 58/56/58 13/13/13 
f 55/55/55 11/11/11 6/6/6 52/53/52 
f 52/53/52 51/53/51 56/55/56 55/55/55 
f 59/57/59 60/57/60 61/58/61 62/58/62 
f 17/19/17 59/57/59 62/58/62 19/21/19 
f 59/57/59 17/19/17 13/18/13 58/59/58 
f 58/59/58 57/59/57 60/57/60 59/57/59 
f 63/60/63 64/60/64 65/61/65 66/61/66 
f 23/26/23 63/60/63 66/61/66 25/28/25 
f 63/60/63 23/26/23 19/21/19 62/58/62 
f 62/58/62 61/58/61 64/60/64 63/60/63 
f 67/62/67 68/62/68 69/63/69 70/63/70 
f 29/32/29 67/62/67 70/63/70 31/34/31 
f 67/62/67 29/32/29 25/28/25 66/61/66 
f 66/61/66 65/61/65 68/62/68 67/62/67 
f 71/64/71 72/64/72 73/65/73 74/65/74 
f 35/38/35 71/64/71 74/65/74 37/40/37 
f 71/64/71 35/38/35 31/34/31 70/63/70 
f 70/63/70 69/63/69 72/64/72 71/64/71 
f 75/66/75 76/66/76 77/67/77 78/67/78 
f 41/44/41 75/66/75 78/67/78 43/46/43 
f 75/66/75 41/44/41 37/40/37 74/65/74 
f 74/65/74 73/65/73 76/66/76 75/66/75 
f 79/68/79 80/68/80 54/54/54 53/54/53 
f 47/50/47 79/68/79 53/54/53 3/3/3 
f 79/68/79 47/50/47 43/46/43 78/67/78 
f 78/67/78 77/67/77 80/68/80 79/68/79 
f 81/69/81 82/70/82 83/71/83 84/72/84 
f 84/72/84 85/73/85 86/74/86 81/69/81 
f 81/69/81 86/74/86 87/75/87 88/76/88 
f 82/70/82 81/69/81 88/76/88 89/77/89 
f 90/78/90 91/79/91 89/77/89 88/76/88 
f 88/76/88 87/75/87 92/80/92 90/78/90 
f 90/78/90 92/80/92 93/81/93 94/82/94 
f 91/79/91 90/78/90 94/82/94 95/13/95 
f 96/83/96 97/84/97 95/18/95 94/85/94 
f 94/85/94 93/86/93 98/87/98 96/83/96 
f 96/83/96 98/87/98 99/88/99 100/89/100 
f 97/84/97 96/83/96 100/89/100 101/90/101 
f 102/91/102 103/92/103 101/90/101 100/89/100 
f 100/89/100 99/88/99 104/93/104 102/91/102 
f 102/91/102 104/93/104 105/94/105 106/95/106 
f 103/92/103 102/91/102 106/95/106 107/96/107 
f 108/97/108 109/98/109 107/96/107 106/95/106 
f 106/95/106 105/94/105 110/99/110 108/97/108 
f 108/97/108 110/99/110 111/100/111 112/101/112 
f 109/98/109 108/97/108 112/101/112 113/102/113 
f 114/103/114 115/104/115 113/102/113 112/101/112 
f 112/101/112 111/100/111 116/105/116 114/103/114 
f 114/103/114 116/105/116 117/106/117 118/107/118 
f 115/104/115 114/103/114 118/107/118 119/108/119 
f 120/109/120 121/110/121 119/108/119 118/107/118 
f 118/107/118 117/106/117 122/111/122 120/109/120 
f 120/109/120 122/111/122 123/112/123 124/113/124 
f 121/110/121 120/109/120 124/113/124 125/114/125 
f 126/115/126 127/116/127 125/114/125 124/113/124 
f 124/113/124 123/112/123 128/117/128 126/115/126 
f 126/115/126 128/117/128 85/73/85 84/72/84 
f 127/116/127 126/115/126 84/72/84 83/71/83 
f 50/52/50 54/54/54 83/71/83 82/70/82 
f 51/53/51 50/52/50 82/70/82 89/77/89 
f 56/55/56 51/53/51 89/77/89 91/79/91 
f 57/56/57 56/55/56 91/79/91 95/13/95 
f 60/57/60 57/59/57 95/18/95 97/84/97 
f 61/58/61 60/57/60 97/84/97 101/90/101 
f 64/60/64 61/58/61 101/90/101 103/92/103 
f 65/61/65 64/60/64 103/92/103 107/96/107 
f 68/62/68 65/61/65 107/96/107 109/98/109 
f 69/63/69 68/62/68 109/98/109 113/102/113 
f 72/64/72 69/63/69 113/102/113 115/104/115 
f 73/65/73 72/64/72 115/104/115 119/108/119 
f 76/66/76 73/65/73 119/108/119 121/110/121 
f 77/67/77 76/66/76 121/110/121 125/114/125 
f 80/68/80 77/67/77 125/114/125 127/116/127 
f 54/54/54 80/68/80 127/116/127 83/71/83 
f 129/118/129 130/119/130 131/120/131 132/121/132 
f 133/122/133 129/118/129 132/121/132 134/123/134 
f 135/122/135 136/118/136 129/118/129 133/122/133 
f 136/118/136 137/119/137 130/119/130 129/118/129 
f 138/124/138 133/122/133 134/123/134 139/125/139 
f 140/126/140 138/124/138 139/125/139 141/127/141 
f 142/126/142 143/124/143 138/124/138 140/126/140 
f 143/124/143 135/122/135 133/122/133 138/124/138 
f 144/128/144 140/126/140 141/127/141 145/129/145 
f 146/130/146 144/128/144 145/129/145 147/131/147 
f 148/130/148 149/128/149 144/128/144 146/130/146 
f 149/128/149 142/126/142 140/126/140 144/128/144 
f 150/132/150 146/130/146 147/131/147 151/133/151 
f 152/134/152 150/132/150 151/133/151 153/135/153 
f 154/134/154 155/132/155 150/132/150 152/134/152 
f 155/132/155 148/130/148 146/130/146 150/132/150 
f 156/136/156 152/134/152 153/135/153 157/137/157 
f 158/138/158 156/136/156 157/137/157 159/139/159 
f 160/138/160 161/136/161 156/136/156 158/138/158 
f 161/136/161 154/134/154 152/134/152 156/136/156 
f 162/140/162 158/138/158 159/139/159 163/141/163 
f 164/142/164 162/140/162 163/141/163 165/143/165 
f 166/142/166 167/140/167 162/140/162 164/142/164 
f 167/140/167 160/138/160 158/138/158 162/140/162 
f 168/144/168 164/142/164 165/143/165 169/145/169 
f 170/146/170 168/144/168 169/145/169 171/147/171 
f 172/146/172 173/144/173 168/144/168 170/146/170 
f 173/144/173 166/142/166 164/142/164 168/144/168 
f 174/148/174 170/146/170 171/147/171 175/149/175 
f 130/119/130 174/148/174 175/149/175 131/120/131 
f 137/119/137 176/148/176 174/148/174 130/119/130 
f 176/148/176 172/146/172 170/146/170 174/148/174 
f 169/145/169 8/8/8 7/7/7 171/147/171 
f 8/8/8 169/145/169 165/143/165 9/9/9 
f 175/149/175 15/15/15 14/14/14 131/120/131 
f 15/15/15 175/149/175 171/147/171 7/7/7 
f 132/121/132 21/23/21 20/22/20 134/123/134 
f 21/23/21 132/121/132 131/120/131 14/24/14 
f 139/125/139 27/30/27 26/29/26 141/127/141 
f 27/30/27 139/125/139 134/123/134 20/22/20 
f 145/129/145 33/36/33 32/35/32 147/131/147 
f 33/36/33 145/129/145 141/127/141 26/29/26 
f 151/133/151 39/42/39 38/41/38 153/135/153 
f 39/42/39 151/133/151 147/131/147 32/35/32 
f 157/137/157 45/48/45 44/47/44 159/139/159 
f 45/48/45 157/137/157 153/135/153 38/41/38 
f 163/141/163 48/51/48 9/9/9 165/143/165 
f 48/51/48 163/141/163 159/139/159 44/47/44 
f 177/150/177 86/74/86 85/73/85 178/151/178 
f 86/74/86 177/150/177 179/152/179 87/75/87 
f 180/153/180 92/80/92 87/75/87 179/152/179 
f 92/80/92 180/153/180 181/154/181 93/81/93 
f 182/155/182 98/87/98 93/86/93 181/154/181 
f 98/87/98 182/155/182 183/156/183 99/88/99 
f 184/157/184 104/93/104 99/88/99 183/156/183 
f 104/93/104 184/157/184 185/158/185 105/94/105 
f 186/159/186 110/99/110 105/94/105 185/158/185 
f 110/99/110 186/159/186 187/160/187 111/100/111 
f 188/161/188 116/105/116 111/100/111 187/160/187 
f 116/105/116 188/161/188 189/162/189 117/106/117 
f 190/163/190 122/111/122 117/106/117 189/162/189 
f 122/111/122 190/163/190 191/164/191 123/112/123 
f 192/165/192 128/117/128 123/112/123 191/164/191 
f 128/117/128 192/165/192 178/151/178 85/73/85 
f 182/155/182 136/118/136 135/122/135 183/156/183 
f 136/118/136 182/155/182 181/154/181 137/119/137 
f 184/157/184 143/124/143 142/126/142 185/158/185 
f 143/124/143 184/157/184 183/156/183 135/122/135 
f 186/159/186 149/128/149 148/130/148 187/160/187 
f 149/128/149 186/159/186 185/158/185 142/126/142 
f 188/161/188 155/132/155 154/134/154 189/162/189 
f 155/132/155 188/161/188 187/160/187 148/130/148 
f 190/163/190 161/136/161 160/138/160 191/164/191 
f 161/136/161 190/163/190 189/162/189 154/134/154 
f 192/165/192 167/140/167 166/142/166 178/151/178 
f 167/140/167 192/165/192 191/164/191 160/138/160 
f 177/150/177 173/144/173 172/146/172 179/152/179 
f 173/144/173 177/150/177 178/151/178 166/142/166 
f 180/153/180 176/148/176 137/119/137 181/154/181 
f 176/148/176 180/153/180 179/152/179 172/146/172 
# 192 polygons

