# 3ds Max Wavefront OBJ Exporter v0.97b - (c)2007 guruware
# File Created: 05.11.2009 02:18:32

mtllib Rectangle-Frame_1.mtl

#
# object Rectangle
#

v  -12.5000 -56.6613 7.8756
v  -12.5000 -53.1200 13.7822
v  -19.4444 -50.3656 12.2509
v  -21.8750 -53.1200 7.8756
v  -12.5000 -56.6613 -0.0000
v  -21.8750 -53.1200 -0.0000
v  0.0000 -56.6613 -0.0000
v  0.0000 -56.6613 7.8756
v  0.0000 -53.1200 13.7822
v  -12.5000 56.6613 7.8756
v  -21.8750 53.1200 7.8756
v  -19.4444 50.3657 12.2509
v  -12.5000 53.1200 13.7822
v  0.0000 56.6613 7.8756
v  0.0000 53.1200 13.7822
v  0.0000 56.6613 -0.0000
v  -12.5000 56.6613 -0.0000
v  -21.8750 53.1200 -0.0000
v  -12.5000 -42.4960 15.7511
v  -21.8750 -42.4960 13.7822
v  0.0000 -42.4960 15.7511
v  0.0000 -28.3307 15.7511
v  -12.5000 -28.3307 15.7511
v  -21.8750 -28.3307 13.7822
v  25.0000 -42.4960 7.8756
v  21.8750 -42.4960 13.7822
v  19.4444 -50.3656 12.2509
v  21.8750 -53.1200 7.8756
v  25.0000 -42.4960 -0.0000
v  21.8750 -53.1200 -0.0000
v  25.0000 -28.3307 -0.0000
v  25.0000 -28.3307 7.8756
v  21.8750 -28.3307 13.7822
v  12.5000 -42.4960 -15.7511
v  21.8750 -42.4960 -13.7822
v  19.4444 -50.3656 -12.2509
v  12.5000 -53.1200 -13.7822
v  0.0000 -42.4960 -15.7511
v  0.0000 -53.1200 -13.7822
v  0.0000 -28.3307 -15.7511
v  12.5000 -28.3307 -15.7511
v  21.8750 -28.3307 -13.7822
v  -25.0000 -42.4960 -7.8756
v  -21.8750 -42.4960 -13.7822
v  -19.4444 -50.3656 -12.2509
v  -21.8750 -53.1200 -7.8756
v  -25.0000 -42.4960 -0.0000
v  -25.0000 -28.3307 -0.0000
v  -25.0000 -28.3307 -7.8756
v  -21.8750 -28.3307 -13.7822
v  12.5000 -56.6613 -7.8756
v  0.0000 -56.6613 -7.8756
v  21.8750 -53.1200 -7.8756
v  12.5000 -56.6613 -0.0000
v  12.5000 56.6613 7.8756
v  12.5000 53.1200 13.7822
v  21.8750 53.1200 7.8756
v  19.4444 50.3657 12.2509
v  21.8750 53.1200 -0.0000
v  12.5000 56.6613 -0.0000
v  12.5000 -42.4960 15.7511
v  12.5000 -53.1200 13.7822
v  12.5000 -28.3307 15.7511
v  -12.5000 -42.4960 -15.7511
v  -12.5000 -53.1200 -13.7822
v  -12.5000 -28.3307 -15.7511
v  -12.5000 -56.6613 -7.8756
v  -12.5000 56.6613 -7.8756
v  0.0000 56.6613 -7.8756
v  -12.5000 53.1200 -13.7822
v  0.0000 53.1200 -13.7822
v  -19.4444 50.3657 -12.2509
v  -21.8750 53.1200 -7.8756
v  25.0000 -42.4960 -7.8756
v  25.0000 -28.3307 -7.8756
v  -25.0000 -42.4960 7.8756
v  -25.0000 -28.3307 7.8756
v  12.5000 -56.6613 7.8756
v  12.5000 56.6613 -7.8756
v  21.8750 53.1200 -7.8756
v  12.5000 53.1200 -13.7822
v  19.4444 50.3657 -12.2509
v  -12.5000 14.1653 15.7511
v  -12.5000 -0.0000 15.7511
v  0.0000 -0.0000 15.7511
v  0.0000 14.1653 15.7511
v  -12.5000 28.3307 15.7511
v  0.0000 28.3307 15.7511
v  -21.8750 28.3307 13.7822
v  -21.8750 14.1653 13.7822
v  -21.8750 -0.0000 13.7822
v  25.0000 14.1653 7.8756
v  25.0000 -0.0000 7.8756
v  25.0000 -0.0000 -0.0000
v  25.0000 14.1653 -0.0000
v  25.0000 28.3307 7.8756
v  25.0000 28.3307 -0.0000
v  21.8750 28.3307 13.7822
v  21.8750 14.1653 13.7822
v  21.8750 -0.0000 13.7822
v  12.5000 14.1653 -15.7511
v  12.5000 -0.0000 -15.7511
v  0.0000 -0.0000 -15.7511
v  0.0000 14.1653 -15.7511
v  12.5000 28.3307 -15.7511
v  0.0000 28.3307 -15.7511
v  21.8750 28.3307 -13.7822
v  21.8750 14.1653 -13.7822
v  21.8750 -0.0000 -13.7822
v  -25.0000 14.1653 -7.8756
v  -25.0000 -0.0000 -7.8756
v  -25.0000 -0.0000 -0.0000
v  -25.0000 14.1653 -0.0000
v  -25.0000 28.3307 -7.8756
v  -25.0000 28.3307 -0.0000
v  -21.8750 28.3307 -13.7822
v  -21.8750 14.1653 -13.7822
v  -21.8750 -0.0000 -13.7822
v  12.5000 14.1653 15.7511
v  12.5000 -0.0000 15.7511
v  12.5000 28.3307 15.7511
v  -12.5000 14.1653 -15.7511
v  -12.5000 -0.0000 -15.7511
v  -12.5000 28.3307 -15.7511
v  25.0000 14.1653 -7.8756
v  25.0000 -0.0000 -7.8756
v  25.0000 28.3307 -7.8756
v  -25.0000 14.1653 7.8756
v  -25.0000 -0.0000 7.8756
v  -25.0000 28.3307 7.8756
v  -12.5000 42.4960 15.7511
v  0.0000 42.4960 15.7511
v  -21.8750 42.4960 13.7822
v  25.0000 42.4960 7.8756
v  25.0000 42.4960 -0.0000
v  21.8750 42.4960 13.7822
v  12.5000 42.4960 -15.7511
v  0.0000 42.4960 -15.7511
v  21.8750 42.4960 -13.7822
v  -25.0000 42.4960 -7.8756
v  -25.0000 42.4960 -0.0000
v  -21.8750 42.4960 -13.7822
v  12.5000 42.4960 15.7511
v  -12.5000 42.4960 -15.7511
v  25.0000 42.4960 -7.8756
v  -25.0000 42.4960 7.8756
v  -12.5000 -14.1653 15.7511
v  0.0000 -14.1653 15.7511
v  -21.8750 -14.1653 13.7822
v  25.0000 -14.1653 7.8756
v  25.0000 -14.1653 -0.0000
v  21.8750 -14.1653 13.7822
v  12.5000 -14.1653 -15.7511
v  0.0000 -14.1653 -15.7511
v  21.8750 -14.1653 -13.7822
v  -25.0000 -14.1653 -7.8756
v  -25.0000 -14.1653 -0.0000
v  -21.8750 -14.1653 -13.7822
v  12.5000 -14.1653 15.7511
v  -12.5000 -14.1653 -15.7511
v  25.0000 -14.1653 -7.8756
v  -25.0000 -14.1653 7.8756
# 162 vertices

vn -0.1830 -0.9458 0.2683
vn -0.1865 -0.5757 0.7961
vn -0.4570 -0.4543 0.7647
vn -0.6872 -0.6611 0.3013
vn -0.1796 -0.9837 -0.0000
vn -0.7332 -0.6801 -0.0000
vn 0.0000 -1.0000 -0.0000
vn 0.0000 -0.9638 0.2668
vn 0.0000 -0.5704 0.8214
vn -0.1830 0.9458 0.2683
vn -0.6872 0.6611 0.3013
vn -0.4570 0.4543 0.7647
vn -0.1865 0.5757 0.7961
vn -0.0000 0.9638 0.2668
vn 0.0000 0.5704 0.8214
vn -0.0000 1.0000 -0.0000
vn -0.1796 0.9837 0.0000
vn -0.7332 0.6801 0.0000
vn -0.1109 -0.0994 0.9889
vn -0.5967 -0.1387 0.7903
vn 0.0000 -0.0915 0.9958
vn -0.0000 0.0000 1.0000
vn -0.1033 -0.0000 0.9946
vn -0.6017 -0.0000 0.7987
vn 0.9579 -0.1491 0.2452
vn 0.6119 -0.1494 0.7767
vn 0.5309 -0.4147 0.7391
vn 0.7059 -0.6431 0.2969
vn 0.9898 -0.1426 -0.0000
vn 0.7332 -0.6801 -0.0000
vn 1.0000 0.0000 -0.0000
vn 0.9705 -0.0000 0.2409
vn 0.6017 0.0000 0.7987
vn 0.1109 -0.0994 -0.9889
vn 0.5967 -0.1387 -0.7903
vn 0.4738 -0.4144 -0.7770
vn 0.1630 -0.5665 -0.8078
vn -0.0000 -0.0915 -0.9958
vn -0.0000 -0.5704 -0.8214
vn 0.0000 0.0000 -1.0000
vn 0.1033 -0.0000 -0.9946
vn 0.6017 0.0000 -0.7987
vn -0.9579 -0.1491 -0.2452
vn -0.6119 -0.1494 -0.7767
vn -0.5309 -0.4147 -0.7391
vn -0.7059 -0.6431 -0.2969
vn -0.9898 -0.1426 -0.0000
vn -1.0000 0.0000 -0.0000
vn -0.9705 -0.0000 -0.2409
vn -0.6017 0.0000 -0.7987
vn 0.1694 -0.9516 -0.2563
vn 0.0000 -0.9638 -0.2668
vn 0.7005 -0.6544 -0.2848
vn 0.1796 -0.9837 -0.0000
vn 0.1694 0.9516 0.2563
vn 0.1551 0.5737 0.8042
vn 0.7059 0.6431 0.2969
vn 0.5309 0.4147 0.7391
vn 0.7332 0.6801 -0.0000
vn 0.1796 0.9837 0.0000
vn 0.1023 -0.0905 0.9906
vn 0.1551 -0.5737 0.8042
vn 0.1033 -0.0000 0.9946
vn -0.1023 -0.0905 -0.9906
vn -0.1551 -0.5737 -0.8042
vn -0.1033 -0.0000 -0.9946
vn -0.1694 -0.9516 -0.2563
vn -0.1830 0.9458 -0.2683
vn -0.0000 0.9638 -0.2668
vn -0.1784 0.5830 -0.7926
vn 0.0000 0.5704 -0.8214
vn -0.5151 0.4549 -0.7265
vn -0.6925 0.6497 -0.3137
vn 0.9626 -0.1361 -0.2341
vn 0.9705 0.0000 -0.2409
vn -0.9626 -0.1361 0.2341
vn -0.9705 0.0000 0.2409
vn 0.1694 -0.9516 0.2563
vn 0.1694 0.9516 -0.2563
vn 0.7005 0.6544 -0.2848
vn 0.1630 0.5665 -0.8078
vn 0.4738 0.4144 -0.7770
vn -0.1033 0.0000 0.9946
vn 0.0000 0.0000 1.0000
vn -0.6017 0.0000 0.7987
vn 0.9705 0.0000 0.2409
vn 0.6017 -0.0000 0.7987
vn 0.1033 0.0000 -0.9946
vn -0.0000 0.0000 -1.0000
vn 0.6017 -0.0000 -0.7987
vn -0.9705 0.0000 -0.2409
vn -0.6017 -0.0000 -0.7987
vn 0.1033 0.0000 0.9946
vn -0.1033 0.0000 -0.9946
vn 0.9705 -0.0000 -0.2409
vn -0.9705 -0.0000 0.2409
vn -0.1109 0.0994 0.9889
vn 0.0000 0.0915 0.9958
vn -0.5967 0.1387 0.7903
vn 0.9579 0.1491 0.2452
vn 0.9898 0.1426 -0.0000
vn 0.6119 0.1494 0.7767
vn 0.1109 0.0994 -0.9889
vn -0.0000 0.0915 -0.9958
vn 0.5967 0.1387 -0.7903
vn -0.9579 0.1491 -0.2452
vn -0.9898 0.1426 0.0000
vn -0.6119 0.1494 -0.7767
vn 0.1023 0.0905 0.9906
vn -0.1023 0.0905 -0.9906
vn 0.9626 0.1361 -0.2341
vn -0.9626 0.1361 0.2341
# 112 vertex normals

vt 0.7500 0.2500 0.0000
vt 0.7500 0.0000 0.0000
vt 1.0000 0.0000 0.0000
vt 1.0000 0.2500 0.0000
vt 0.7500 0.5000 0.0000
vt 1.0000 0.5000 0.0000
vt 0.5000 0.5000 0.0000
vt 0.5000 0.2500 0.0000
vt 0.5000 0.0000 0.0000
vt 0.2500 0.2500 0.0000
vt 0.0000 0.2500 0.0000
vt 0.0000 0.0000 0.0000
vt 0.2500 0.0000 0.0000
vt 0.2500 0.5000 0.0000
vt 0.0000 0.5000 0.0000
vt 0.2500 0.1250 0.0000
vt 0.0000 0.1250 0.0000
vt 0.5000 0.1250 0.0000
vt 0.2500 0.7500 0.0000
vt 0.5000 0.7500 0.0000
vt 0.5000 1.0000 0.0000
vt 0.2500 1.0000 0.0000
vt 0.0000 0.7500 0.0000
vt 0.0000 1.0000 0.0000
vt 0.7500 0.1250 0.0000
vt 1.0000 0.1250 0.0000
vt 0.7500 0.7500 0.0000
vt 1.0000 0.7500 0.0000
vt 0.7500 1.0000 0.0000
vt 1.0000 1.0000 0.0000
vt 0.2500 0.6250 0.0000
vt 0.5000 0.6250 0.0000
vt 0.0000 0.6250 0.0000
vt 0.7500 0.6250 0.0000
vt 1.0000 0.6250 0.0000
vt 0.2500 0.8750 0.0000
vt 0.5000 0.8750 0.0000
vt 0.0000 0.8750 0.0000
vt 0.7500 0.8750 0.0000
vt 1.0000 0.8750 0.0000
vt 0.2500 0.3750 0.0000
vt 0.5000 0.3750 0.0000
vt 0.0000 0.3750 0.0000
vt 0.7500 0.3750 0.0000
vt 1.0000 0.3750 0.0000
# 45 texture coords

g Rectangle
usemtl 004_default_green
s 1
f 1/1/1 2/2/2 3/3/3 4/4/4 
f 5/5/5 1/1/1 4/4/4 6/6/6 
f 1/1/1 5/5/5 7/7/7 8/8/8 
f 2/2/2 1/1/1 8/8/8 9/9/9 
f 10/10/10 11/11/11 12/12/12 13/13/13 
f 14/8/14 10/10/10 13/13/13 15/9/15 
f 10/10/10 14/8/14 16/7/16 17/14/17 
f 11/11/11 10/10/10 17/14/17 18/15/18 
f 19/16/19 20/17/20 3/12/3 2/13/2 
f 21/18/21 19/16/19 2/13/2 9/9/9 
f 19/16/19 21/18/21 22/8/22 23/10/23 
f 20/17/20 19/16/19 23/10/23 24/11/24 
f 25/16/25 26/17/26 27/12/27 28/13/28 
f 29/18/29 25/16/25 28/13/28 30/9/30 
f 25/16/25 29/18/29 31/8/31 32/10/32 
f 26/17/26 25/16/25 32/10/32 33/11/33 
f 34/16/34 35/17/35 36/12/36 37/13/37 
f 38/18/38 34/16/34 37/13/37 39/9/39 
f 34/16/34 38/18/38 40/8/40 41/10/41 
f 35/17/35 34/16/34 41/10/41 42/11/42 
f 43/16/43 44/17/44 45/12/45 46/13/46 
f 47/18/47 43/16/43 46/13/46 6/9/6 
f 43/16/43 47/18/47 48/8/48 49/10/49 
f 44/17/44 43/16/43 49/10/49 50/11/50 
f 51/19/51 52/20/52 39/21/39 37/22/37 
f 53/23/53 51/19/51 37/22/37 36/24/36 
f 51/19/51 53/23/53 30/15/30 54/14/54 
f 52/20/52 51/19/51 54/14/54 7/7/7 
f 55/1/55 14/8/14 15/9/15 56/2/56 
f 57/4/57 55/1/55 56/2/56 58/3/58 
f 55/1/55 57/4/57 59/6/59 60/5/60 
f 14/8/14 55/1/55 60/5/60 16/7/16 
f 61/25/61 21/18/21 9/9/9 62/2/62 
f 26/26/26 61/25/61 62/2/62 27/3/27 
f 61/25/61 26/26/26 33/4/33 63/1/63 
f 21/18/21 61/25/61 63/1/63 22/8/22 
f 64/25/64 38/18/38 39/9/39 65/2/65 
f 44/26/44 64/25/64 65/2/65 45/3/45 
f 64/25/64 44/26/44 50/4/50 66/1/66 
f 38/18/38 64/25/64 66/1/66 40/8/40 
f 67/27/67 5/5/5 6/6/6 46/28/46 
f 65/29/65 67/27/67 46/28/46 45/30/45 
f 67/27/67 65/29/65 39/21/39 52/20/52 
f 5/5/5 67/27/67 52/20/52 7/7/7 
f 68/19/68 17/14/17 16/7/16 69/20/69 
f 70/22/70 68/19/68 69/20/69 71/21/71 
f 68/19/68 70/22/70 72/24/72 73/23/73 
f 17/14/17 68/19/68 73/23/73 18/15/18 
f 74/25/74 29/18/29 30/9/30 53/2/53 
f 35/26/35 74/25/74 53/2/53 36/3/36 
f 74/25/74 35/26/35 42/4/42 75/1/75 
f 29/18/29 74/25/74 75/1/75 31/8/31 
f 76/25/76 47/18/47 6/9/6 4/2/4 
f 20/26/20 76/25/76 4/2/4 3/3/3 
f 76/25/76 20/26/20 24/4/24 77/1/77 
f 47/18/47 76/25/76 77/1/77 48/8/48 
f 78/10/78 54/14/54 30/15/30 28/11/28 
f 62/13/62 78/10/78 28/11/28 27/12/27 
f 78/10/78 62/13/62 9/9/9 8/8/8 
f 54/14/54 78/10/78 8/8/8 7/7/7 
f 79/27/79 60/5/60 59/6/59 80/28/80 
f 81/29/81 79/27/79 80/28/80 82/30/82 
f 79/27/79 81/29/81 71/21/71 69/20/69 
f 60/5/60 79/27/79 69/20/69 16/7/16 
f 83/31/83 84/14/23 85/7/84 86/32/84 
f 87/19/23 83/31/83 86/32/84 88/20/84 
f 83/31/83 87/19/23 89/23/24 90/33/85 
f 84/14/23 83/31/83 90/33/85 91/15/24 
f 92/31/86 93/14/32 94/7/31 95/32/31 
f 96/19/32 92/31/86 95/32/31 97/20/31 
f 92/31/86 96/19/32 98/23/33 99/33/87 
f 93/14/32 92/31/86 99/33/87 100/15/33 
f 101/31/88 102/14/41 103/7/89 104/32/89 
f 105/19/41 101/31/88 104/32/89 106/20/40 
f 101/31/88 105/19/41 107/23/90 108/33/42 
f 102/14/41 101/31/88 108/33/42 109/15/90 
f 110/31/91 111/14/49 112/7/48 113/32/48 
f 114/19/49 110/31/91 113/32/48 115/20/48 
f 110/31/91 114/19/49 116/23/50 117/33/92 
f 111/14/49 110/31/91 117/33/92 118/15/50 
f 119/34/63 120/5/93 100/6/33 99/35/87 
f 121/27/93 119/34/63 99/35/87 98/28/33 
f 119/34/63 121/27/93 88/20/84 86/32/84 
f 120/5/93 119/34/63 86/32/84 85/7/84 
f 122/34/66 123/5/94 118/6/50 117/35/92 
f 124/27/94 122/34/66 117/35/92 116/28/50 
f 122/34/66 124/27/94 106/20/40 104/32/89 
f 123/5/94 122/34/66 104/32/89 103/7/89 
f 125/34/95 126/5/75 109/6/90 108/35/42 
f 127/27/75 125/34/95 108/35/42 107/28/90 
f 125/34/95 127/27/75 97/20/31 95/32/31 
f 126/5/75 125/34/95 95/32/31 94/7/31 
f 128/34/96 129/5/77 91/6/24 90/35/85 
f 130/27/77 128/34/96 90/35/85 89/28/24 
f 128/34/96 130/27/77 115/20/48 113/32/48 
f 129/5/77 128/34/96 113/32/48 112/7/48 
f 131/36/97 87/19/23 88/20/84 132/37/98 
f 13/22/13 131/36/97 132/37/98 15/21/15 
f 131/36/97 13/22/13 12/24/12 133/38/99 
f 87/19/23 131/36/97 133/38/99 89/23/24 
f 134/36/100 96/19/32 97/20/31 135/37/101 
f 57/22/57 134/36/100 135/37/101 59/21/59 
f 134/36/100 57/22/57 58/24/58 136/38/102 
f 96/19/32 134/36/100 136/38/102 98/23/33 
f 137/36/103 105/19/41 106/20/40 138/37/104 
f 81/22/81 137/36/103 138/37/104 71/21/71 
f 137/36/103 81/22/81 82/24/82 139/38/105 
f 105/19/41 137/36/103 139/38/105 107/23/90 
f 140/36/106 114/19/49 115/20/48 141/37/107 
f 73/22/73 140/36/106 141/37/107 18/21/18 
f 140/36/106 73/22/73 72/24/72 142/38/108 
f 114/19/49 140/36/106 142/38/108 116/23/50 
f 143/39/109 121/27/93 98/28/33 136/40/102 
f 56/29/56 143/39/109 136/40/102 58/30/58 
f 143/39/109 56/29/56 15/21/15 132/37/98 
f 121/27/93 143/39/109 132/37/98 88/20/84 
f 144/39/110 124/27/94 116/28/50 142/40/108 
f 70/29/70 144/39/110 142/40/108 72/30/72 
f 144/39/110 70/29/70 71/21/71 138/37/104 
f 124/27/94 144/39/110 138/37/104 106/20/40 
f 145/39/111 127/27/75 107/28/90 139/40/105 
f 80/29/80 145/39/111 139/40/105 82/30/82 
f 145/39/111 80/29/80 59/21/59 135/37/101 
f 127/27/75 145/39/111 135/37/101 97/20/31 
f 146/39/112 130/27/77 89/28/24 133/40/99 
f 11/29/11 146/39/112 133/40/99 12/30/12 
f 146/39/112 11/29/11 18/21/18 141/37/107 
f 130/27/77 146/39/112 141/37/107 115/20/48 
f 147/41/83 23/10/23 22/8/22 148/42/84 
f 84/14/23 147/41/83 148/42/84 85/7/84 
f 147/41/83 84/14/23 91/15/24 149/43/85 
f 23/10/23 147/41/83 149/43/85 24/11/24 
f 150/41/86 32/10/32 31/8/31 151/42/31 
f 93/14/32 150/41/86 151/42/31 94/7/31 
f 150/41/86 93/14/32 100/15/33 152/43/87 
f 32/10/32 150/41/86 152/43/87 33/11/33 
f 153/41/88 41/10/41 40/8/40 154/42/89 
f 102/14/41 153/41/88 154/42/89 103/7/89 
f 153/41/88 102/14/41 109/15/90 155/43/42 
f 41/10/41 153/41/88 155/43/42 42/11/42 
f 156/41/91 49/10/49 48/8/48 157/42/48 
f 111/14/49 156/41/91 157/42/48 112/7/48 
f 156/41/91 111/14/49 118/15/50 158/43/92 
f 49/10/49 156/41/91 158/43/92 50/11/50 
f 159/44/63 63/1/63 33/4/33 152/45/87 
f 120/5/93 159/44/63 152/45/87 100/6/33 
f 159/44/63 120/5/93 85/7/84 148/42/84 
f 63/1/63 159/44/63 148/42/84 22/8/22 
f 160/44/66 66/1/66 50/4/50 158/45/92 
f 123/5/94 160/44/66 158/45/92 118/6/50 
f 160/44/66 123/5/94 103/7/89 154/42/89 
f 66/1/66 160/44/66 154/42/89 40/8/40 
f 161/44/95 75/1/75 42/4/42 155/45/42 
f 126/5/75 161/44/95 155/45/42 109/6/90 
f 161/44/95 126/5/75 94/7/31 151/42/31 
f 75/1/75 161/44/95 151/42/31 31/8/31 
f 162/44/96 77/1/77 24/4/24 149/45/85 
f 129/5/77 162/44/96 149/45/85 91/6/24 
f 162/44/96 129/5/77 112/7/48 157/42/48 
f 77/1/77 162/44/96 157/42/48 48/8/48 
# 160 polygons

